<svg width="300" height="200" viewBox="0 0 300 200" fill="none" xmlns="http://www.w3.org/2000/svg">
  <rect width="300" height="200" fill="#1a1a2e"/>
  <rect x="20" y="20" width="260" height="160" rx="10" fill="#16213e"/>
  
  <!-- Memory dots pattern -->
  <circle cx="80" cy="60" r="12" fill="#00d4aa"/>
  <circle cx="120" cy="60" r="12" fill="#ff6b6b"/>
  <circle cx="160" cy="60" r="12" fill="#4ecdc4"/>
  <circle cx="200" cy="60" r="12" fill="#ffe66d"/>
  
  <circle cx="80" cy="100" r="12" fill="#a8e6cf"/>
  <circle cx="120" cy="100" r="12" fill="#ff8b94"/>
  <circle cx="160" cy="100" r="12" fill="#b4a7d6"/>
  <circle cx="200" cy="100" r="12" fill="#ffd93d"/>
  
  <circle cx="80" cy="140" r="12" fill="#6c5ce7"/>
  <circle cx="120" cy="140" r="12" fill="#fd79a8"/>
  <circle cx="160" cy="140" r="12" fill="#00b894"/>
  <circle cx="200" cy="140" r="12" fill="#e17055"/>
  
  <!-- Game title -->
  <text x="150" y="30" text-anchor="middle" fill="#ffffff" font-family="Arial, sans-serif" font-size="16" font-weight="bold">MEMDOT</text>
  
  <!-- Brain icon -->
  <path d="M240 80 C250 70, 260 80, 250 90 C260 100, 250 110, 240 100 C230 110, 220 100, 230 90 C220 80, 230 70, 240 80 Z" fill="#00d4aa" opacity="0.8"/>
</svg>